# xmcd
#
# Track frame offsets:
#	150
#	10524
#	24739
#	38993
#	47167
#	61944
#	75299
#	82901
#	91950
#	107799
#	115644
#	132039
#	143584
#	155672
#	168832
#	178109
#	194898
#	206932
#	216679
#	227555
#	243240
#	256327
#
# Disc length: 3681 seconds
#
# Revision: 0
# Processed by: cddbd v1.5.2PL0 Copyright (c) Steve Scherf et al.
# Submitted via: EasyCDDAExtractor 16.0.5.1
#
DISCID=280e5f16
DTITLE=Тончо Русев - Урок по история and Песни за България
DYEAR=1900
DGENRE=
TTITLE0=Пеещ влак
TTITLE1=Каблешково писмо
TTITLE2=Песен за Дякона
TTITLE3=За свята и чиста Република
TTITLE4=Завръщане в Жеравна
TTITLE5=Като Ботева клетва
TTITLE6=Десет дни камбаните не бият
TTITLE7=Приижда Янтра
TTITLE8=Любовта на Самара
TTITLE9=Чинтулова песен
TTITLE10=Пак пътува
TTITLE11=Априлски комити
TTITLE12=Детска мечта
TTITLE13=Детска парола
TTITLE14=В началото на лятото
TTITLE15=Космическа гордост
TTITLE16=Космическа асамблея
TTITLE17=Даца в космоса
TTITLE18=Песен за родния край
TTITLE19=Алено цвете
TTITLE20=Партизанска поляна
TTITLE21=Жажда
EXTD=
EXTT0=
EXTT1=
EXTT2=
EXTT3=
EXTT4=
EXTT5=
EXTT6=
EXTT7=
EXTT8=
EXTT9=
EXTT10=
EXTT11=
EXTT12=
EXTT13=
EXTT14=
EXTT15=
EXTT16=
EXTT17=
EXTT18=
EXTT19=
EXTT20=
EXTT21=
PLAYORDER=
